<svg width="192" height="192" viewBox="0 0 192 192" fill="none" xmlns="http://www.w3.org/2000/svg">
<g clip-path="url(#clip0_152_25949)">
<path d="M47.1528 173.291C37.5651 173.291 30.0992 170.776 24.8338 165.825C19.5684 160.874 16.8964 153.723 16.8964 144.292V114.114C16.8964 109.006 15.639 105.313 13.2028 102.955C10.7666 100.597 7.15149 99.4184 2.43621 99.4184H0V87.866H2.43621C7.15149 87.866 10.7666 86.6872 13.2028 84.3295C15.639 81.8933 16.8964 78.2782 16.8964 73.2486V47.7075C16.8964 38.3555 19.4898 31.204 24.8338 26.1744C30.0992 21.2233 37.5651 18.7085 47.1528 18.7085C56.7406 18.7085 51.7109 18.7871 53.8328 18.9443C56.0333 19.1014 57.8408 19.3372 59.4125 19.6516V30.6539H48.5674C42.9877 30.6539 38.6653 32.0685 35.6004 34.7405C32.5354 37.491 30.9637 41.7348 30.9637 47.5503V72.3841C30.9637 78.9855 29.5491 84.0938 26.6413 87.7088C23.8122 91.3239 19.1755 93.6029 12.8098 94.4674V92.6599C19.1755 93.4457 23.8122 95.7248 26.6413 99.3398C29.4705 102.955 30.9637 108.142 30.9637 114.822V144.292C30.9637 150.029 32.5354 154.273 35.6004 157.023C38.6653 159.853 43.0662 161.267 48.5674 161.267H59.4125V172.27C57.8408 172.505 55.9547 172.741 53.8328 172.898C51.7109 173.134 49.5105 173.213 47.1528 173.213V173.291Z" fill="#0A40FF"/>
<path d="M126.452 126.885H109.87L93.9171 103.073H75.1345V89.6342H93.7599L110.185 65.1147H126.767L105.312 95.5283L126.531 126.885H126.452ZM79.0639 126.885H65.2324V65.1147H79.0639V126.885Z" fill="black"/>
<path d="M144.848 173.291C154.435 173.291 161.901 170.776 167.167 165.825C172.432 160.874 175.104 153.723 175.104 144.292V114.114C175.104 109.006 176.361 105.313 178.798 102.955C181.234 100.597 184.849 99.4184 189.564 99.4184H192V87.866H189.564C184.849 87.866 181.234 86.6872 178.798 84.3295C176.361 81.8933 175.104 78.2782 175.104 73.2486V47.7075C175.104 38.3555 172.432 31.204 167.167 26.1744C161.901 21.2233 154.435 18.7085 144.848 18.7085C135.26 18.7085 140.289 18.7871 138.168 18.9443C135.967 19.1014 134.16 19.3372 132.588 19.6516V30.6539H143.433C149.013 30.6539 153.335 32.0685 156.4 34.7405C159.465 37.491 161.037 41.7348 161.037 47.5503V72.3841C161.037 78.9855 162.451 84.0938 165.359 87.7088C168.188 91.3239 172.825 93.6029 179.191 94.4674V92.6599C172.825 93.4457 168.188 95.7248 165.359 99.3398C162.53 102.955 161.037 108.142 161.037 114.822V144.292C161.037 150.029 159.465 154.273 156.4 157.023C153.335 159.853 148.934 161.267 143.433 161.267H132.588V172.27C134.16 172.505 136.046 172.741 138.168 172.898C140.289 173.134 142.49 173.213 144.848 173.213V173.291Z" fill="#0A40FF"/>
</g>
<defs>
<clipPath id="clip0_152_25949">
<rect width="192" height="154.583" fill="white" transform="translate(0 18.7085)"/>
</clipPath>
</defs>
</svg>
